<svg width="24" height="24" viewBox="0 0 24 24" fill="none" xmlns="http://www.w3.org/2000/svg">
<path fill-rule="evenodd" clip-rule="evenodd" d="M3.63 7.02948L9.02 2.82371C10.37 1.77227 12.62 1.7222 14.02 2.70355L20.2 7.03949C21.19 7.73044 22 9.28257 22 10.4942V17.7842C22 20.0974 20.11 22 17.79 22H6.21C3.89 22 2 20.0974 2 17.7742V10.354C2 9.22248 2.73 7.73044 3.63 7.02948ZM12.75 15C12.75 14.5858 12.4142 14.25 12 14.25C11.5858 14.25 11.25 14.5858 11.25 15V18C11.25 18.4142 11.5858 18.75 12 18.75C12.4142 18.75 12.75 18.4142 12.75 18V15Z" fill="#00B7C6"/>
</svg>
