<svg width="24" height="24" viewBox="0 0 24 24" fill="none" xmlns="http://www.w3.org/2000/svg">
<path d="M4.09138 7.62077L9.48085 3.41542C9.4809 3.41538 9.48096 3.41534 9.48101 3.41529C10.0063 3.00628 10.7421 2.76937 11.5189 2.75113C12.2956 2.73289 13.0434 2.93497 13.5892 3.31751C13.5893 3.31757 13.5894 3.31763 13.5895 3.3177L19.7692 7.65345L19.7708 7.65452C20.1409 7.91285 20.5192 8.36769 20.8062 8.91828C21.0932 9.46878 21.25 10.0404 21.25 10.4942V17.7842C21.25 19.6853 19.6937 21.25 17.79 21.25H6.21C4.30749 21.25 2.75 19.6865 2.75 17.7742V10.354C2.75 9.93353 2.89071 9.39152 3.151 8.86028C3.41116 8.32931 3.75453 7.88313 4.09085 7.62119L4.09138 7.62077Z" stroke="#7B7D82" stroke-width="1.5" stroke-linecap="round" stroke-linejoin="round"/>
<path d="M12 18V15" stroke="#7B7D82" stroke-width="1.5" stroke-linecap="round" stroke-linejoin="round"/>
</svg>
