<svg width="24" height="24" viewBox="0 0 24 24" fill="none" xmlns="http://www.w3.org/2000/svg">
<path d="M22.479 8.02L22.1793 5.25C21.7454 2.23 20.33 1 17.3028 1H14.8645H13.3354H10.1945H8.66545H6.18584C3.14831 1 1.7432 2.23 1.29894 5.28L1.01998 8.03C0.916662 9.1 1.21628 10.14 1.86718 10.95C2.65239 11.94 3.8612 12.5 5.20432 12.5C6.50612 12.5 7.75626 11.87 8.54147 10.86C9.24403 11.87 10.4425 12.5 11.7753 12.5C13.1081 12.5 14.2756 11.9 14.9885 10.9C15.784 11.89 17.0135 12.5 18.2946 12.5C19.6687 12.5 20.9085 11.91 21.6834 10.87C22.3033 10.07 22.5823 9.06 22.479 8.02Z" fill="#00B7C6"/>
<path d="M21.5 14.8938V17.9947C21.5 20.8666 19.1692 23.1974 16.2972 23.1974C16.0163 23.1974 15.7874 22.9685 15.7874 22.6876V19.8364C15.7874 18.5045 15.3815 17.8282 14.5907 17.1206C13.8935 16.4859 12.9466 16.1737 11.7708 16.1737C11.5107 16.1737 11.2505 16.1841 10.9696 16.2153C9.11739 16.4026 7.71265 17.9634 7.71265 19.8364V22.6876C7.71265 22.9685 7.48372 23.1974 7.20277 23.1974C4.33084 23.1974 2 20.8666 2 17.9947V14.9146C2 14.1862 2.71798 13.6972 3.39434 13.9365C3.67529 14.0301 3.95624 14.103 4.2476 14.1446C4.37246 14.1654 4.50774 14.1862 4.6326 14.1862C4.79909 14.207 4.96558 14.2174 5.13207 14.2174C6.33911 14.2174 7.52535 13.77 8.46185 13C9.35672 13.77 10.5221 14.2174 11.75 14.2174C12.9883 14.2174 14.1329 13.7908 15.0277 13.0208C15.9642 13.7804 17.1297 14.2174 18.3159 14.2174C18.5032 14.2174 18.6905 14.207 18.8674 14.1862C18.9923 14.1758 19.1067 14.1654 19.2212 14.1446C19.5438 14.103 19.8351 14.0093 20.1265 13.9157C20.8028 13.6868 21.5 14.1862 21.5 14.8938Z" fill="#00B7C6"/>
<path d="M11.133 18.0337C9.91825 18.1579 9 19.19 9 20.4132V22.5C9 23.0523 9.44772 23.5 10 23.5H13.4999C14.0522 23.5 14.4999 23.0523 14.4999 22.5V20.7477C14.5095 18.7504 13.333 17.8043 11.133 18.0337Z" fill="#00B7C6"/>
</svg>
