<svg width="24" height="24" viewBox="0 0 24 24" fill="none" xmlns="http://www.w3.org/2000/svg">
<path d="M3 11V15.5816C3 20.1633 4.80301 22 9.3005 22H14.6995C19.197 22 21 20.1633 21 15.5816V11" stroke="#7B7D82" stroke-width="1.5" stroke-linecap="round" stroke-linejoin="round"/>
<path d="M12 12C13.8202 12 15.163 10.51 14.984 8.68L14.3275 2H9.68244L9.01602 8.68C8.83698 10.51 10.1798 12 12 12Z" stroke="#7B7D82" stroke-width="1.5" stroke-linecap="round" stroke-linejoin="round"/>
<path d="M18.3777 12C20.5829 12 22.1986 10.36 21.9802 8.35L21.6746 5.6C21.2816 3 20.1899 2 17.3296 2H14L14.7642 9.01C14.9498 10.66 16.5764 12 18.3777 12Z" stroke="#7B7D82" stroke-width="1.5" stroke-linecap="round" stroke-linejoin="round"/>
<path d="M5.62728 12C7.43103 12 9.05987 10.66 9.23477 9.01L9.47527 6.8L10 2H6.6658C3.80167 2 2.7085 3 2.31495 5.6L2.01979 8.35C1.80116 10.36 3.41906 12 5.62728 12Z" stroke="#7B7D82" stroke-width="1.5" stroke-linecap="round" stroke-linejoin="round"/>
<path d="M12 17C9.996 17 9 17.83 9 19.5V22H15V19.5C15 17.83 14.004 17 12 17Z" stroke="#7B7D82" stroke-width="1.5" stroke-linecap="round" stroke-linejoin="round"/>
</svg>
